<svg id="svg" version="1.1" xmlns="http://www.w3.org/2000/svg" xmlns:xlink="http://www.w3.org/1999/xlink" width="400" height="247.174670504469" viewBox="0, 0, 400,247.174670504469"><g id="svgg"><path id="path0" d="M191.583 0.264 C 188.287 0.719,187.390 0.858,185.667 1.183 C 184.704 1.364,183.654 1.582,183.333 1.668 C 183.012 1.754,182.150 1.969,181.417 2.147 C 174.261 3.884,166.288 7.249,160.000 11.188 C 159.129 11.733,158.269 12.270,158.089 12.381 C 157.463 12.767,152.912 16.075,152.083 16.747 C 148.880 19.343,144.127 23.934,142.250 26.243 C 141.883 26.694,141.407 27.255,141.192 27.490 C 139.667 29.154,134.832 36.103,134.111 37.667 C 134.047 37.804,133.772 38.292,133.499 38.750 C 131.341 42.370,128.605 48.805,127.226 53.500 C 127.078 54.004,126.897 54.576,126.825 54.771 C 126.752 54.966,126.572 55.641,126.424 56.271 C 126.276 56.901,126.052 57.829,125.926 58.333 C 124.660 63.388,123.296 75.648,123.954 76.055 C 124.153 76.178,131.870 77.835,137.176 78.895 C 140.870 79.632,148.747 81.000,149.301 81.000 C 149.556 81.000,149.587 80.654,149.625 77.375 C 149.705 70.330,150.507 65.111,152.666 57.583 C 153.145 55.912,154.014 53.552,155.082 51.016 C 159.382 40.810,166.090 31.588,174.496 24.326 C 175.181 23.734,175.848 23.151,175.978 23.030 C 180.172 19.119,190.277 13.434,197.750 10.781 C 208.111 7.103,221.329 5.715,230.664 7.325 C 231.544 7.476,232.562 7.560,232.917 7.510 C 233.642 7.408,226.180 4.446,221.917 3.143 C 217.336 1.744,213.816 1.018,207.869 0.245 C 205.334 -0.085,194.015 -0.072,191.583 0.264 " stroke="none" fill="#f3215d" fill-rule="evenodd"></path><path id="path1" d="M262.451 16.208 C 262.110 26.022,259.039 35.287,253.072 44.504 C 252.411 45.524,250.045 48.800,249.515 49.428 C 249.278 49.709,248.784 50.309,248.418 50.761 C 241.904 58.805,230.648 67.096,221.170 70.832 C 220.407 71.133,219.484 71.542,215.863 73.188 C 215.284 73.451,214.770 73.667,214.722 73.667 C 214.673 73.667,214.397 73.769,214.109 73.895 C 213.820 74.020,213.058 74.327,212.417 74.576 C 211.775 74.826,210.987 75.133,210.667 75.258 C 209.707 75.632,206.350 76.768,204.833 77.231 C 204.054 77.470,203.180 77.742,202.891 77.837 C 202.603 77.932,201.928 78.124,201.391 78.263 C 198.760 78.946,196.670 79.468,195.917 79.630 C 195.458 79.729,194.558 79.923,193.917 80.060 C 181.371 82.754,164.407 83.224,151.917 81.225 C 151.642 81.181,150.742 81.119,149.917 81.088 C 146.679 80.964,125.111 76.819,123.936 76.094 C 123.742 75.975,123.096 75.787,122.500 75.677 C 121.904 75.567,120.929 75.372,120.333 75.242 C 118.484 74.841,116.961 74.532,115.833 74.331 C 115.237 74.224,114.225 74.036,113.583 73.913 C 109.609 73.148,103.533 72.267,99.833 71.919 C 89.740 70.969,81.384 72.130,73.667 75.553 C 62.570 80.474,53.437 90.379,47.754 103.658 C 46.880 105.700,46.973 106.016,48.061 104.698 C 57.523 93.227,68.901 84.914,77.500 83.187 C 78.004 83.086,79.017 82.875,79.750 82.718 C 81.728 82.294,88.703 82.299,91.250 82.726 C 96.275 83.568,101.678 85.040,106.000 86.745 C 106.321 86.872,107.146 87.175,107.833 87.420 C 108.521 87.665,109.308 87.960,109.583 88.074 C 109.858 88.189,110.346 88.378,110.667 88.495 C 110.987 88.611,111.475 88.798,111.750 88.912 C 112.025 89.025,112.775 89.325,113.417 89.579 C 114.058 89.833,115.196 90.294,115.946 90.604 C 116.695 90.913,117.350 91.167,117.401 91.167 C 117.452 91.167,118.864 91.733,120.539 92.425 C 125.512 94.480,126.611 94.925,129.583 96.081 C 131.142 96.688,132.591 97.256,132.804 97.344 C 133.928 97.809,138.150 99.333,138.314 99.333 C 138.419 99.333,138.635 99.409,138.794 99.501 C 139.115 99.688,144.597 101.514,146.014 101.907 C 146.511 102.044,147.442 102.307,148.083 102.490 C 148.725 102.673,150.188 103.054,151.333 103.335 C 152.479 103.617,153.717 103.929,154.083 104.029 C 154.898 104.250,158.245 104.954,159.500 105.168 C 160.004 105.254,160.754 105.396,161.167 105.483 C 161.947 105.648,163.095 105.817,166.333 106.241 C 175.276 107.412,186.297 107.415,194.583 106.249 C 195.500 106.120,196.850 105.931,197.583 105.828 C 204.884 104.803,215.015 102.016,220.250 99.591 C 225.497 97.161,230.724 94.201,234.333 91.615 C 236.477 90.079,238.878 88.241,239.600 87.583 C 239.700 87.492,240.629 86.667,241.663 85.750 C 244.393 83.331,247.532 79.897,250.274 76.333 C 251.058 75.314,254.333 70.433,254.333 70.283 C 254.333 70.245,254.720 69.547,255.192 68.732 C 255.664 67.917,256.379 66.537,256.780 65.667 C 257.181 64.796,257.575 63.963,257.657 63.817 C 257.738 63.670,258.082 62.883,258.421 62.067 C 260.186 57.823,261.230 54.462,262.558 48.750 C 262.869 47.412,263.558 42.998,263.819 40.667 C 263.917 39.796,264.053 38.596,264.121 38.000 C 264.189 37.404,264.243 33.992,264.241 30.417 C 264.237 24.006,264.136 22.277,263.499 17.750 C 263.409 17.108,263.294 16.283,263.243 15.917 C 263.192 15.550,263.079 14.842,262.992 14.344 C 262.905 13.846,262.833 13.415,262.833 13.386 C 262.833 13.357,262.770 13.333,262.692 13.333 C 262.614 13.333,262.506 14.627,262.451 16.208 " stroke="none" fill="#04e38b" fill-rule="evenodd"></path><path id="path2" d="M272.681 55.250 C 272.676 55.433,272.744 55.696,272.833 55.833 C 273.047 56.165,273.047 55.748,272.833 55.250 L 272.690 54.917 272.681 55.250 M273.012 56.500 C 273.012 56.740,273.482 57.694,273.494 57.477 C 273.497 57.419,273.390 57.119,273.257 56.811 C 273.123 56.502,273.013 56.362,273.012 56.500 M149.548 79.250 C 149.549 79.708,149.581 79.876,149.620 79.623 C 149.658 79.369,149.657 78.994,149.617 78.789 C 149.578 78.584,149.546 78.792,149.548 79.250 M267.622 84.100 C 267.566 84.156,267.601 84.399,267.698 84.642 C 268.443 86.502,268.755 87.366,268.999 88.250 C 269.076 88.525,269.300 89.162,269.498 89.667 C 269.696 90.171,269.994 91.033,270.159 91.583 C 270.325 92.133,270.536 92.771,270.629 93.000 C 270.987 93.887,271.312 94.805,271.765 96.208 C 272.024 97.010,272.295 97.667,272.368 97.667 C 272.541 97.667,272.551 97.714,272.154 96.664 C 271.964 96.161,271.670 95.300,271.500 94.750 C 271.330 94.200,271.030 93.337,270.831 92.833 C 270.633 92.329,270.412 91.692,270.340 91.417 C 270.268 91.142,270.006 90.354,269.756 89.667 C 269.507 88.979,269.122 87.854,268.901 87.167 C 268.680 86.479,268.430 85.767,268.344 85.583 C 268.259 85.400,268.104 84.969,267.999 84.625 C 267.797 83.964,267.780 83.942,267.622 84.100 M143.002 121.199 C 143.178 121.908,143.388 122.530,143.835 123.667 C 144.033 124.171,144.255 124.808,144.327 125.083 C 144.400 125.358,144.585 125.921,144.738 126.333 C 144.891 126.746,145.123 127.421,145.252 127.833 C 145.417 128.357,145.776 128.860,146.443 129.500 C 146.969 130.004,147.309 130.297,147.199 130.150 C 146.942 129.804,146.021 127.361,145.667 126.083 C 145.591 125.808,145.367 125.171,145.169 124.667 C 144.669 123.397,144.168 121.667,144.299 121.667 C 144.408 121.667,144.137 121.466,143.307 120.933 L 142.864 120.649 143.002 121.199 M150.593 125.304 C 150.839 125.883,151.212 126.935,151.343 127.417 C 151.417 127.692,151.826 128.892,152.252 130.083 C 152.677 131.275,153.089 132.475,153.167 132.750 C 153.245 133.025,153.577 133.999,153.904 134.915 C 154.232 135.831,154.500 136.599,154.500 136.623 C 154.500 136.647,154.575 136.667,154.667 136.667 C 154.758 136.667,154.978 136.798,155.155 136.958 C 155.759 137.507,155.986 137.667,156.160 137.667 C 156.255 137.667,156.333 137.724,156.333 137.793 C 156.333 137.863,156.502 138.025,156.708 138.153 C 157.031 138.354,157.057 138.354,156.897 138.152 C 156.709 137.914,156.094 136.337,155.830 135.417 C 155.751 135.142,155.340 133.942,154.915 132.750 C 154.491 131.558,154.106 130.433,154.058 130.250 C 154.011 130.067,153.910 129.767,153.833 129.583 C 153.757 129.400,153.656 129.100,153.610 128.917 C 153.157 127.137,152.527 125.904,151.901 125.571 C 150.928 125.054,150.444 124.956,150.593 125.304 M157.943 128.538 C 158.000 128.838,158.108 129.203,158.182 129.349 C 158.372 129.723,158.798 130.910,159.164 132.083 C 159.335 132.633,159.637 133.496,159.835 134.000 C 160.033 134.504,160.255 135.142,160.327 135.417 C 160.400 135.692,160.584 136.254,160.737 136.667 C 160.890 137.079,161.278 138.204,161.599 139.167 C 162.337 141.382,162.524 141.807,162.809 141.916 C 163.123 142.037,162.918 141.199,162.238 139.583 C 162.122 139.308,161.913 138.708,161.773 138.250 C 161.633 137.792,161.060 136.104,160.500 134.500 C 159.940 132.896,159.366 131.208,159.225 130.750 C 159.085 130.292,158.864 129.670,158.735 129.369 C 158.606 129.068,158.500 128.715,158.500 128.584 C 158.500 128.452,158.352 128.266,158.170 128.168 C 157.865 128.005,157.848 128.033,157.943 128.538 M179.335 132.792 C 179.336 132.860,179.605 133.667,179.933 134.583 C 180.260 135.500,180.592 136.475,180.671 136.750 C 180.749 137.025,181.158 138.225,181.579 139.417 C 182.001 140.608,182.602 142.333,182.915 143.250 C 183.228 144.167,183.610 145.254,183.763 145.667 C 183.916 146.079,184.102 146.642,184.176 146.917 C 184.330 147.490,184.773 148.759,184.989 149.250 C 185.070 149.433,185.174 149.704,185.221 149.852 C 185.267 150.000,185.466 150.162,185.662 150.214 C 185.924 150.282,185.976 150.255,185.856 150.110 C 185.699 149.922,184.974 147.968,184.670 146.917 C 184.590 146.642,184.177 145.442,183.752 144.250 C 183.326 143.058,182.914 141.858,182.835 141.583 C 182.757 141.308,182.273 139.883,181.759 138.417 C 181.245 136.950,180.590 135.056,180.302 134.208 C 179.873 132.942,179.326 132.141,179.335 132.792 M217.792 209.951 C 217.998 209.991,218.335 209.991,218.542 209.951 C 218.748 209.911,218.579 209.879,218.167 209.879 C 217.754 209.879,217.585 209.911,217.792 209.951 M6.458 246.792 C 9.965 246.817,15.702 246.817,19.208 246.792 C 22.715 246.766,19.846 246.746,12.833 246.746 C 5.821 246.746,2.952 246.766,6.458 246.792 M57.042 246.791 C 58.577 246.819,61.090 246.819,62.625 246.791 C 64.160 246.764,62.904 246.741,59.833 246.741 C 56.762 246.741,55.506 246.764,57.042 246.791 M131.864 246.791 C 133.394 246.819,135.944 246.819,137.531 246.791 C 139.118 246.764,137.867 246.742,134.750 246.741 C 131.633 246.741,130.335 246.764,131.864 246.791 M169.198 246.791 C 170.727 246.819,173.277 246.819,174.864 246.791 C 176.451 246.764,175.200 246.742,172.083 246.741 C 168.967 246.741,167.668 246.764,169.198 246.791 M252.198 246.791 C 253.727 246.819,256.277 246.819,257.864 246.791 C 259.451 246.764,258.200 246.742,255.083 246.741 C 251.967 246.741,250.668 246.764,252.198 246.791 M288.458 246.791 C 290.131 246.819,292.869 246.819,294.542 246.791 C 296.215 246.764,294.846 246.742,291.500 246.742 C 288.154 246.742,286.785 246.764,288.458 246.791 M313.792 246.792 C 319.681 246.816,329.319 246.816,335.208 246.792 C 341.098 246.767,336.279 246.748,324.500 246.748 C 312.721 246.748,307.902 246.767,313.792 246.792 M357.221 246.792 C 360.780 246.817,366.555 246.817,370.054 246.792 C 373.553 246.766,370.642 246.746,363.583 246.746 C 356.525 246.746,353.662 246.767,357.221 246.792 " stroke="none" fill="#14141c" fill-rule="evenodd"></path><path id="path3" d="M272.325 53.198 C 272.320 53.227,272.289 55.612,272.257 58.500 C 272.217 62.034,272.111 64.399,271.933 65.737 C 271.787 66.830,271.703 67.758,271.745 67.801 C 271.787 67.843,271.755 68.001,271.675 68.152 C 271.594 68.303,271.451 68.949,271.358 69.588 C 270.835 73.163,269.322 78.657,267.800 82.500 C 266.832 84.946,264.482 89.949,264.003 90.583 C 263.934 90.675,263.630 91.200,263.328 91.750 C 262.136 93.919,259.049 98.394,257.176 100.667 C 256.033 102.054,252.944 105.509,252.273 106.151 C 251.947 106.464,251.726 106.801,251.783 106.901 C 251.840 107.001,251.826 107.029,251.753 106.962 C 251.679 106.895,250.823 107.577,249.851 108.476 C 248.879 109.375,247.896 110.267,247.667 110.459 C 245.350 112.392,244.230 113.264,242.097 114.797 C 240.729 115.779,239.485 116.696,239.333 116.833 C 239.180 116.971,238.949 117.108,238.819 117.138 C 238.690 117.168,238.471 117.290,238.333 117.410 C 238.010 117.690,234.260 119.934,232.750 120.750 C 230.426 122.007,225.661 124.333,225.411 124.333 C 225.373 124.333,224.947 124.516,224.463 124.738 C 219.086 127.215,208.973 130.178,202.583 131.150 C 195.294 132.259,193.794 132.382,187.417 132.400 C 183.851 132.411,181.705 132.478,181.628 132.583 C 181.552 132.687,181.504 132.671,181.503 132.542 C 181.501 132.405,181.227 132.332,180.708 132.330 C 180.273 132.328,179.429 132.257,178.833 132.172 C 178.237 132.086,176.925 131.928,175.917 131.819 C 173.642 131.574,173.648 131.575,171.417 131.176 C 168.817 130.712,165.160 129.888,163.667 129.431 C 163.254 129.305,162.467 129.073,161.917 128.915 C 160.302 128.454,156.990 127.318,156.021 126.893 C 155.528 126.677,155.062 126.500,154.984 126.500 C 152.983 126.500,140.558 119.083,135.783 115.038 C 133.683 113.260,133.676 113.408,135.709 116.667 C 140.387 124.167,147.014 131.338,154.445 136.941 C 155.695 137.884,156.781 138.616,156.859 138.568 C 156.937 138.520,157.000 138.550,157.000 138.636 C 157.000 138.788,159.245 140.307,160.938 141.299 C 170.318 146.801,180.232 150.116,191.417 151.494 C 196.260 152.090,205.209 152.092,209.583 151.498 C 212.810 151.060,215.049 150.662,218.000 150.005 C 220.037 149.551,224.489 148.178,226.667 147.331 C 227.171 147.135,227.771 146.912,228.000 146.836 C 228.567 146.646,230.460 145.856,230.804 145.666 C 230.958 145.581,232.021 145.060,233.167 144.508 C 234.313 143.956,235.775 143.202,236.417 142.831 C 237.058 142.461,237.733 142.085,237.917 141.996 C 238.293 141.813,238.242 141.845,240.743 140.223 C 247.581 135.786,253.799 130.227,258.500 124.346 C 258.821 123.945,259.276 123.384,259.511 123.100 C 260.770 121.577,263.016 118.378,264.496 116.000 C 265.321 114.675,267.667 110.535,267.667 110.404 C 267.667 110.372,268.048 109.574,268.514 108.631 C 270.141 105.337,271.781 101.069,273.237 96.333 C 274.302 92.871,275.440 86.757,275.811 82.500 C 275.895 81.537,275.991 80.487,276.024 80.167 C 276.172 78.718,276.062 71.045,275.866 69.167 C 275.567 66.298,274.937 62.178,274.563 60.643 C 274.437 60.125,274.333 59.586,274.333 59.445 C 274.333 59.304,274.248 58.977,274.144 58.719 C 274.040 58.461,273.932 58.063,273.904 57.833 C 273.876 57.604,273.775 57.154,273.679 56.833 C 273.584 56.512,273.313 55.596,273.077 54.796 C 272.733 53.627,272.379 52.876,272.325 53.198 M272.986 55.833 C 272.994 56.056,272.977 56.056,272.833 55.833 C 272.744 55.696,272.676 55.433,272.681 55.250 L 272.690 54.917 272.833 55.250 C 272.912 55.433,272.981 55.696,272.986 55.833 M273.494 57.477 C 273.482 57.694,273.012 56.740,273.012 56.500 C 273.013 56.362,273.123 56.502,273.257 56.811 C 273.390 57.119,273.497 57.419,273.494 57.477 M267.999 84.625 C 268.104 84.969,268.259 85.400,268.344 85.583 C 268.430 85.767,268.680 86.479,268.901 87.167 C 269.122 87.854,269.507 88.979,269.756 89.667 C 270.006 90.354,270.268 91.142,270.340 91.417 C 270.412 91.692,270.633 92.329,270.831 92.833 C 271.030 93.337,271.330 94.200,271.500 94.750 C 271.670 95.300,271.964 96.161,272.154 96.664 C 272.551 97.714,272.541 97.667,272.368 97.667 C 272.295 97.667,272.024 97.010,271.765 96.208 C 271.312 94.805,270.987 93.887,270.629 93.000 C 270.536 92.771,270.325 92.133,270.159 91.583 C 269.994 91.033,269.696 90.171,269.498 89.667 C 269.300 89.162,269.076 88.525,268.999 88.250 C 268.755 87.366,268.443 86.502,267.698 84.642 C 267.550 84.273,267.578 84.000,267.765 84.000 C 267.788 84.000,267.894 84.281,267.999 84.625 M144.079 121.442 C 144.260 121.566,144.359 121.667,144.299 121.667 C 144.168 121.667,144.669 123.397,145.169 124.667 C 145.367 125.171,145.591 125.808,145.667 126.083 C 146.021 127.361,146.942 129.804,147.199 130.150 C 147.309 130.297,146.969 130.004,146.443 129.500 C 145.776 128.860,145.417 128.357,145.252 127.833 C 145.123 127.421,144.891 126.746,144.738 126.333 C 144.585 125.921,144.400 125.358,144.327 125.083 C 144.255 124.808,144.033 124.171,143.835 123.667 C 143.388 122.530,143.178 121.908,143.002 121.199 L 142.864 120.649 143.307 120.933 C 143.551 121.090,143.898 121.319,144.079 121.442 M151.901 125.571 C 152.527 125.904,153.157 127.137,153.610 128.917 C 153.656 129.100,153.757 129.400,153.833 129.583 C 153.910 129.767,154.011 130.067,154.058 130.250 C 154.106 130.433,154.491 131.558,154.915 132.750 C 155.340 133.942,155.751 135.142,155.830 135.417 C 156.094 136.337,156.709 137.914,156.897 138.152 C 157.057 138.354,157.031 138.354,156.708 138.153 C 156.502 138.025,156.333 137.863,156.333 137.793 C 156.333 137.724,156.255 137.667,156.160 137.667 C 155.986 137.667,155.759 137.507,155.155 136.958 C 154.978 136.798,154.758 136.667,154.667 136.667 C 154.575 136.667,154.500 136.647,154.500 136.623 C 154.500 136.599,154.232 135.831,153.904 134.915 C 153.577 133.999,153.245 133.025,153.167 132.750 C 153.089 132.475,152.677 131.275,152.252 130.083 C 151.826 128.892,151.417 127.692,151.343 127.417 C 151.212 126.935,150.839 125.883,150.593 125.304 C 150.444 124.956,150.928 125.054,151.901 125.571 M158.500 128.584 C 158.500 128.715,158.606 129.068,158.735 129.369 C 158.864 129.670,159.085 130.292,159.225 130.750 C 159.366 131.208,159.940 132.896,160.500 134.500 C 161.060 136.104,161.633 137.792,161.773 138.250 C 161.913 138.708,162.122 139.308,162.238 139.583 C 162.918 141.199,163.123 142.037,162.809 141.916 C 162.524 141.807,162.337 141.382,161.599 139.167 C 161.278 138.204,160.890 137.079,160.737 136.667 C 160.584 136.254,160.400 135.692,160.327 135.417 C 160.255 135.142,160.033 134.504,159.835 134.000 C 159.637 133.496,159.335 132.633,159.164 132.083 C 158.798 130.910,158.372 129.723,158.182 129.349 C 157.830 128.657,157.823 127.983,158.170 128.168 C 158.352 128.266,158.500 128.452,158.500 128.584 M180.302 134.208 C 180.590 135.056,181.245 136.950,181.759 138.417 C 182.273 139.883,182.757 141.308,182.835 141.583 C 182.914 141.858,183.326 143.058,183.752 144.250 C 184.177 145.442,184.590 146.642,184.670 146.917 C 184.974 147.968,185.699 149.922,185.856 150.110 C 185.976 150.255,185.924 150.282,185.662 150.214 C 185.466 150.162,185.267 150.000,185.221 149.852 C 185.174 149.704,185.070 149.433,184.989 149.250 C 184.773 148.759,184.330 147.490,184.176 146.917 C 184.102 146.642,183.916 146.079,183.763 145.667 C 183.610 145.254,183.228 144.167,182.915 143.250 C 182.602 142.333,182.001 140.608,181.579 139.417 C 181.158 138.225,180.749 137.025,180.671 136.750 C 180.592 136.475,180.260 135.500,179.933 134.583 C 179.257 132.694,179.252 132.667,179.557 132.667 C 179.689 132.667,179.991 133.291,180.302 134.208 M213.667 198.760 C 212.887 198.869,212.213 198.977,212.167 198.999 C 212.072 199.044,212.052 199.048,210.917 199.241 C 202.221 200.717,194.374 208.237,192.645 216.750 C 192.115 219.361,191.753 225.332,192.125 225.334 C 192.194 225.335,192.268 225.879,192.289 226.543 C 192.328 227.720,192.412 228.193,192.946 230.250 C 194.808 237.411,200.556 243.320,208.083 245.810 C 211.548 246.956,213.197 247.177,218.207 247.161 C 222.866 247.146,224.834 246.912,227.583 246.045 C 233.737 244.105,238.391 240.490,241.264 235.417 C 242.421 233.373,243.590 230.197,243.695 228.812 C 243.725 228.411,243.809 228.040,243.882 227.986 C 244.127 227.805,244.365 223.763,244.263 221.500 C 243.861 212.567,239.544 205.573,231.981 201.601 C 230.204 200.667,226.705 199.401,225.667 199.315 C 225.346 199.289,224.995 199.203,224.887 199.124 C 224.780 199.044,224.592 198.996,224.471 199.016 C 224.349 199.036,224.137 199.011,224.000 198.960 C 222.767 198.505,216.361 198.381,213.667 198.760 M0.000 222.871 L 0.000 246.750 13.958 246.718 C 23.701 246.696,28.294 246.627,29.167 246.490 C 34.080 245.718,38.600 243.643,41.894 240.647 C 43.119 239.532,45.333 236.890,45.333 236.543 C 45.333 236.428,45.395 236.333,45.470 236.333 C 45.621 236.333,46.950 234.065,47.032 233.667 C 47.060 233.529,47.129 233.379,47.185 233.333 C 47.566 233.019,48.618 229.836,49.112 227.500 C 49.755 224.456,49.293 216.509,48.440 215.961 C 48.336 215.894,48.302 215.837,48.366 215.836 C 48.774 215.827,46.521 210.549,45.903 210.065 C 45.773 209.963,45.667 209.812,45.667 209.729 C 45.667 209.193,41.740 204.667,41.274 204.667 C 41.167 204.667,40.993 204.527,40.887 204.357 C 40.453 203.662,35.555 200.843,35.181 201.074 C 35.097 201.126,35.003 201.093,34.973 201.001 C 34.835 200.589,30.895 199.533,28.333 199.222 C 27.829 199.161,21.248 199.084,13.708 199.052 L -0.000 198.992 0.000 222.871 M54.000 222.872 L 54.000 246.750 59.875 246.715 L 65.750 246.680 65.794 240.840 L 65.838 235.000 73.868 235.000 C 83.620 235.000,85.256 234.884,88.325 233.975 C 89.630 233.589,92.167 232.394,92.167 232.165 C 92.167 232.074,92.282 232.000,92.424 232.000 C 93.624 232.000,98.758 226.412,98.648 225.225 C 98.643 225.168,98.705 225.075,98.786 225.019 C 98.999 224.872,99.656 223.271,99.950 222.182 C 102.702 211.991,97.316 202.260,87.500 199.689 C 85.345 199.125,84.768 199.104,69.208 199.049 L 54.000 198.995 54.000 222.872 M114.071 199.456 C 114.307 200.458,115.216 203.259,115.354 203.408 C 115.434 203.495,115.500 203.706,115.500 203.877 C 115.500 204.270,116.001 205.865,116.191 206.075 C 116.269 206.162,116.333 206.374,116.333 206.547 C 116.333 206.720,116.515 207.398,116.737 208.055 C 116.958 208.712,117.452 210.262,117.834 211.500 C 118.217 212.737,118.737 214.387,118.991 215.167 C 119.245 215.946,119.654 217.258,119.900 218.083 C 120.146 218.908,120.457 219.830,120.590 220.131 C 120.724 220.432,120.833 220.762,120.833 220.864 C 120.833 221.031,122.382 226.050,122.623 226.667 C 122.761 227.018,122.755 226.998,122.993 227.878 C 123.111 228.315,123.273 228.713,123.354 228.763 C 123.434 228.812,123.500 229.012,123.500 229.206 C 123.500 229.400,123.678 230.089,123.895 230.737 C 124.113 231.386,124.496 232.592,124.748 233.417 C 125.000 234.242,125.412 235.554,125.664 236.333 C 126.172 237.902,127.252 241.316,127.931 243.500 C 128.173 244.279,128.502 245.312,128.661 245.794 L 128.950 246.672 134.812 246.711 L 140.674 246.750 141.021 245.833 C 141.581 244.356,143.108 240.175,143.335 239.500 C 143.412 239.271,143.635 238.671,143.832 238.167 C 144.028 237.662,144.328 236.838,144.500 236.333 C 144.672 235.829,144.972 235.004,145.168 234.500 C 145.681 233.183,145.816 232.705,145.707 232.596 C 145.654 232.543,145.690 232.500,145.786 232.500 C 145.882 232.500,146.000 232.331,146.047 232.125 C 146.095 231.919,146.296 231.338,146.494 230.833 C 146.692 230.329,146.971 229.542,147.113 229.083 C 147.255 228.625,147.472 228.025,147.595 227.750 C 147.971 226.908,148.667 225.036,148.667 224.866 C 148.667 224.777,148.779 224.490,148.916 224.227 C 149.053 223.965,149.165 223.634,149.166 223.492 C 149.166 223.350,149.235 223.162,149.318 223.075 C 149.401 222.988,149.545 222.654,149.638 222.333 C 149.776 221.855,150.759 219.163,152.772 213.750 C 152.909 213.383,153.095 212.838,153.186 212.537 C 153.341 212.025,153.667 211.931,153.667 212.398 C 153.667 212.577,153.940 213.327,154.586 214.917 C 154.660 215.100,154.731 215.287,154.744 215.333 C 154.836 215.673,155.148 216.555,155.866 218.500 C 156.323 219.737,156.929 221.387,157.214 222.167 C 157.499 222.946,157.811 223.638,157.908 223.706 C 158.004 223.773,158.030 223.829,157.965 223.831 C 157.900 223.832,158.074 224.452,158.351 225.208 C 158.629 225.965,158.918 226.771,158.995 227.000 C 159.072 227.229,159.372 228.054,159.662 228.833 C 159.952 229.612,160.252 230.438,160.329 230.667 C 160.405 230.896,160.703 231.721,160.990 232.500 C 161.277 233.279,161.689 234.404,161.906 235.000 C 162.831 237.542,163.530 239.452,164.710 242.667 C 165.400 244.546,166.010 246.233,166.064 246.417 C 166.160 246.742,166.307 246.750,172.056 246.750 L 177.949 246.750 178.333 245.500 C 178.543 244.813,179.005 243.361,179.357 242.275 C 179.710 241.188,179.961 240.239,179.915 240.164 C 179.869 240.089,179.889 240.003,179.960 239.973 C 180.031 239.942,180.304 239.242,180.567 238.417 C 180.830 237.592,181.141 236.617,181.260 236.250 C 181.378 235.883,181.499 235.396,181.529 235.167 C 181.559 234.938,181.629 234.713,181.684 234.667 C 181.739 234.621,182.029 233.796,182.328 232.833 C 182.627 231.871,183.079 230.446,183.333 229.667 C 183.587 228.887,184.000 227.575,184.252 226.750 C 184.504 225.925,184.879 224.725,185.086 224.083 C 185.293 223.442,185.781 221.904,186.170 220.667 C 186.559 219.429,187.084 217.779,187.336 217.000 C 187.588 216.221,188.000 214.908,188.252 214.083 C 188.717 212.558,189.052 211.496,189.961 208.667 C 190.241 207.796,190.856 205.846,191.329 204.333 C 191.802 202.821,192.292 201.283,192.418 200.917 C 192.545 200.550,192.698 199.969,192.759 199.625 L 192.870 199.000 186.951 199.000 L 181.031 199.000 180.750 199.792 C 180.595 200.227,180.404 200.808,180.326 201.083 C 180.248 201.358,179.729 202.896,179.174 204.500 C 178.619 206.104,177.603 209.067,176.917 211.083 C 176.231 213.100,174.949 216.850,174.068 219.417 C 173.187 221.983,172.427 224.308,172.379 224.583 C 172.331 224.858,172.231 225.160,172.157 225.254 C 172.082 225.348,171.897 225.798,171.744 226.254 C 171.342 227.458,171.257 227.462,170.849 226.300 C 170.647 225.722,170.378 224.987,170.252 224.667 C 170.126 224.346,169.708 223.221,169.322 222.167 C 168.936 221.112,168.547 220.156,168.457 220.042 C 168.366 219.927,168.336 219.833,168.389 219.833 C 168.513 219.833,167.693 217.649,167.465 217.375 C 167.370 217.260,167.337 217.167,167.392 217.167 C 167.447 217.167,167.411 216.960,167.312 216.708 C 167.050 216.037,166.207 213.735,165.802 212.583 C 165.609 212.033,165.406 211.546,165.350 211.500 C 165.295 211.454,165.229 211.267,165.202 211.083 C 165.176 210.900,165.050 210.487,164.922 210.167 C 164.794 209.846,164.378 208.721,163.997 207.667 C 163.615 206.612,162.823 204.465,162.235 202.895 C 161.647 201.325,161.167 199.952,161.167 199.844 C 161.167 199.736,161.080 199.701,160.974 199.766 C 160.861 199.836,160.827 199.812,160.891 199.707 C 160.952 199.610,160.955 199.411,160.899 199.265 C 160.731 198.825,146.250 198.866,146.014 199.307 C 145.837 199.638,145.498 200.547,145.010 202.000 C 144.841 202.504,144.628 203.104,144.536 203.333 C 143.315 206.392,142.160 209.688,142.257 209.844 C 142.310 209.930,142.281 210.000,142.192 210.000 C 142.104 210.000,141.918 210.319,141.780 210.708 C 141.310 212.035,140.682 213.748,140.330 214.667 C 140.137 215.171,139.838 215.996,139.667 216.500 C 139.495 217.004,139.196 217.829,139.002 218.333 C 138.808 218.838,138.534 219.588,138.393 220.000 C 138.175 220.638,137.669 221.983,136.576 224.833 C 136.453 225.154,136.187 225.887,135.985 226.462 C 135.784 227.037,135.596 227.485,135.568 227.457 C 135.541 227.429,135.255 226.621,134.933 225.662 C 134.300 223.772,132.513 218.520,130.256 211.917 C 129.473 209.625,128.271 206.100,127.585 204.083 C 126.899 202.067,126.232 200.117,126.101 199.750 L 125.864 199.083 119.914 199.040 L 113.963 198.996 114.071 199.456 M249.167 222.872 L 249.167 246.750 255.000 246.750 L 260.833 246.750 260.833 239.625 L 260.833 232.500 269.554 232.500 L 278.274 232.500 278.624 233.208 C 278.816 233.598,279.196 234.404,279.469 235.000 C 279.741 235.596,280.392 236.983,280.915 238.083 C 281.438 239.183,282.130 240.646,282.452 241.333 C 282.775 242.021,283.357 243.258,283.746 244.083 C 284.135 244.908,284.576 245.846,284.726 246.167 L 284.998 246.750 291.416 246.750 C 294.945 246.750,297.833 246.689,297.833 246.613 C 297.833 246.538,296.919 244.701,295.802 242.530 C 288.710 228.755,288.907 229.153,289.319 229.408 C 289.495 229.517,290.751 228.608,291.812 227.605 C 297.979 221.774,298.339 210.481,292.554 204.363 C 292.018 203.797,291.517 203.333,291.439 203.333 C 291.361 203.333,291.163 203.161,290.997 202.951 C 290.832 202.741,290.413 202.422,290.067 202.243 C 289.721 202.063,289.317 201.800,289.168 201.657 C 288.421 200.940,284.442 199.529,282.333 199.233 C 281.829 199.162,274.160 199.080,265.292 199.049 L 249.167 198.994 249.167 222.872 M302.833 222.875 L 302.833 246.750 324.500 246.750 L 346.167 246.750 346.167 241.208 L 346.167 235.667 330.333 235.667 L 314.500 235.667 314.500 217.333 L 314.500 199.000 308.667 199.000 L 302.833 199.000 302.833 222.875 M350.577 199.208 C 350.533 199.323,350.517 210.049,350.541 223.044 L 350.583 246.671 364.788 246.670 C 379.638 246.669,379.954 246.656,382.727 245.931 C 386.482 244.948,390.105 242.960,392.833 240.386 C 394.202 239.095,396.000 237.004,396.000 236.704 C 396.000 236.607,396.064 236.503,396.142 236.472 C 396.372 236.382,397.727 233.888,398.345 232.417 C 398.802 231.329,398.972 230.833,398.888 230.833 C 398.835 230.833,398.867 230.740,398.958 230.625 C 399.049 230.510,399.208 230.042,399.310 229.583 C 399.413 229.125,399.610 228.258,399.748 227.656 C 400.103 226.113,400.101 219.790,399.745 218.116 C 398.293 211.301,394.730 205.990,389.412 202.714 C 388.291 202.024,387.269 201.520,387.144 201.597 C 387.065 201.646,387.000 201.616,387.000 201.529 C 387.000 201.443,386.569 201.206,386.042 201.004 C 385.515 200.802,384.817 200.526,384.491 200.391 C 384.165 200.256,383.827 200.162,383.741 200.183 C 383.654 200.204,383.370 200.133,383.110 200.025 C 382.384 199.726,380.378 199.351,379.122 199.280 C 378.502 199.245,377.946 199.168,377.886 199.108 C 377.663 198.886,350.662 198.984,350.577 199.208 M84.167 210.095 C 86.633 211.179,87.918 212.712,88.565 215.344 C 89.495 219.130,87.099 223.034,83.367 223.815 C 82.788 223.936,79.611 224.000,74.158 224.000 L 65.833 224.000 65.833 216.824 L 65.833 209.648 74.625 209.707 C 82.946 209.763,83.457 209.783,84.167 210.095 M26.667 210.028 C 26.804 210.075,27.217 210.169,27.583 210.236 C 27.950 210.304,28.536 210.468,28.886 210.600 C 29.236 210.732,29.592 210.796,29.678 210.743 C 29.763 210.690,29.833 210.708,29.833 210.783 C 29.833 210.858,30.227 211.099,30.708 211.319 C 32.968 212.354,36.500 216.055,36.500 217.389 C 36.500 217.505,36.562 217.671,36.638 217.758 C 36.855 218.006,37.314 219.770,37.588 221.408 C 37.901 223.279,37.334 227.237,36.632 228.075 C 36.560 228.162,36.500 228.328,36.500 228.444 C 36.500 229.481,33.508 232.918,31.636 234.029 C 28.791 235.720,26.825 236.000,17.804 236.000 L 11.500 236.000 11.500 222.908 L 11.500 209.816 18.958 209.879 C 23.060 209.914,26.529 209.981,26.667 210.028 M220.500 210.155 C 229.618 211.550,234.261 218.263,232.018 226.807 C 229.680 235.710,215.823 238.997,208.015 232.499 C 206.147 230.945,204.167 227.702,204.167 226.198 C 204.167 225.987,204.109 225.850,204.037 225.893 C 203.772 226.058,203.803 221.299,204.076 220.000 C 205.184 214.735,209.629 210.991,215.750 210.167 C 216.575 210.056,217.325 209.942,217.417 209.912 C 217.790 209.794,218.518 209.851,220.500 210.155 M280.762 210.110 C 281.214 210.263,281.752 210.496,281.958 210.630 C 282.165 210.763,282.333 210.831,282.333 210.782 C 282.333 210.645,283.294 211.636,283.735 212.227 C 285.514 214.613,284.787 219.050,282.339 220.746 C 280.651 221.916,280.773 221.903,270.292 221.962 L 260.833 222.015 260.833 215.924 L 260.833 209.833 270.387 209.833 C 278.853 209.833,280.034 209.865,280.762 210.110 M377.917 210.155 C 379.799 210.569,381.233 211.109,382.481 211.872 C 390.665 216.882,390.149 230.155,381.602 234.469 C 378.997 235.784,377.170 236.000,368.649 236.000 L 362.333 236.000 362.333 222.912 L 362.333 209.823 369.458 209.842 C 375.598 209.858,376.768 209.902,377.917 210.155 " stroke="none" fill="#0c0c1c" fill-rule="evenodd"></path><path id="path4" d="" stroke="none" fill="#5b7c64" fill-rule="evenodd"></path></g></svg>