<?xml version="1.0" encoding="UTF-8"?>
<svg xmlns="http://www.w3.org/2000/svg" xmlns:xlink="http://www.w3.org/1999/xlink" enable-background="new 0 0 390.3 219.7" viewBox="0 0 390.3 219.7" width="2400" height="1353.8461538462"><linearGradient id="a" gradientTransform="matrix(1 0 0 -1 0 221.28)" gradientUnits="userSpaceOnUse" x1="135.3502" x2="222.8849" y1="127.5344" y2="149.7979"><stop offset="0" stop-color="#ff3c14" stop-opacity=".3"/><stop offset=".6" stop-color="#ff3c14"/><stop offset=".9641" stop-color="#ff3c14" stop-opacity=".3627"/><stop offset="1" stop-color="#ff3c14" stop-opacity=".3"/></linearGradient><linearGradient id="b" gradientTransform="matrix(1 0 0 -1 0 221.28)" gradientUnits="userSpaceOnUse" x1="172.759" x2="227.9044" y1="115.7129" y2="134.6362"><stop offset="0" stop-color="#0f0f19" stop-opacity=".1"/><stop offset=".6" stop-color="#0f0f19" stop-opacity=".95"/><stop offset="1" stop-color="#0f0f19" stop-opacity=".3"/></linearGradient><linearGradient id="c" gradientTransform="matrix(1 0 0 -1 0 221.28)" gradientUnits="userSpaceOnUse" x1="165.7461" x2="207.8906" y1="153.174" y2="153.174"><stop offset="0" stop-color="#0f0f19" stop-opacity=".6"/><stop offset=".9" stop-color="#0f0f19" stop-opacity=".1"/></linearGradient><linearGradient id="d" gradientTransform="matrix(1 0 0 -1 0 221.28)" gradientUnits="userSpaceOnUse" x1="182.7027" x2="185.5805" y1="134.1973" y2="148.2061"><stop offset="0" stop-color="#0f0f19"/><stop offset=".15" stop-color="#0f0f19" stop-opacity=".75"/><stop offset="1" stop-color="#0f0f19" stop-opacity="0"/></linearGradient><path d="m-300.8-1620.4h1440v5421h-1440z" fill="#E5E8E8"/><path d="m202 91.4c-7.9 2.9-16.7 3.3-24.8 1.3-6.7-1.6-12.9-4.7-19.3-7-10.2-3.6-15.3 0-21.9 7.6 2.6-6.5 8.3-13.9 19.7-13 7.5.6 14.4 2.8 19.9 3.5 25.8 3.6 44.2-11 43.9-26.3 1.3 7.7 2 25.6-17.5 33.9z" fill="url(#a)"/><path d="m197.3 111.3c-11.9.7-22.2-5.2-27.6-14.6 18.6 16.5 55.3 3.5 53.5-23.6 5.8 17.7-7.2 37-25.9 38.2z" fill="url(#b)"/><path d="m175.6 83.9c-.7-17.3 14.8-31.5 32.3-28.6-19.6-9.3-42.1 4.8-42.1 26.6 3.5.8 6.8 1.6 9.8 2z" fill="url(#c)"/><path d="m175.6 83.9c-.7-17.3 14.8-31.5 32.3-28.6-19.6-9.3-42.1 4.8-42.1 26.6 3.5.8 6.8 1.6 9.8 2z" fill="url(#d)" opacity=".5"/><path d="m157 158.1h1.8v7.4h4.2v1.7h-6zm12.4 9.2c-1.9 0-3.6-1.2-4.3-2.9-1.3-3.1.9-6.5 4.3-6.5 3.3 0 5.6 3.5 4.3 6.5-.7 1.8-2.4 3-4.3 2.9zm0-1.7c2.1 0 3.5-2.2 2.7-4.1-1-2.4-4.4-2.4-5.3 0-.8 1.9.5 4.1 2.6 4.1zm11.7 1.7c-3.5 0-5.7-3.4-4.4-6.5 1.3-3.4 6.2-3.8 8.2-.9l-1.5 1c-1-1.5-3.3-1.7-4.5-.4-1.4 1.4-1 4.1.9 4.9.4.2.8.2 1.2.2 1.3 0 2.3-.7 2.6-2h-2.9v-1.6h4.8v.8c0 .6-.1 1.2-.3 1.7-.6 1.7-2.3 2.9-4.1 2.8zm7.1-9.2h1.8v9.1h-1.8zm8.1 9.2c-1.6 0-3-.6-4-1.9l1.5-1.2c.6.9 1.4 1.4 2.5 1.4.5 0 .9-.1 1.1-.3.4-.3.5-.9.2-1.3s-.9-.5-1.1-.6c-.6-.1-1.3-.3-1.9-.5-1.1-.3-1.9-1.1-1.9-2.3 0-1.7 1.6-2.7 3.2-2.7 1.4 0 2.6.5 3.5 1.6l-1.4 1.1c-.2-.4-.5-.6-.9-.8-.5-.4-1.9-.5-2.4 0-.2.2-.3.5-.3.8 0 .9 1.4.9 2 1.1 1 .2 2.2.5 2.7 1.5.4.6.4 1.6 0 2.3-.3 1.3-1.5 1.9-2.8 1.8zm8-7.6h-2.5v-1.6h6.8v1.6h-2.6v7.5h-1.7zm6.6-1.6h1.8v9.1h-1.8zm9.1 9.2c-1.9 0-3.6-1.1-4.3-2.9-.7-1.7-.3-3.9 1-5.2 2.1-2.1 5.9-1.7 7.4.9l-1.6 1c-.2-.5-.6-.9-1-1.1-1.1-.7-2.7-.5-3.6.5-1.1 1.1-1.1 3.1 0 4.2.9 1 2.6 1.2 3.6.4.4-.3.8-.7 1-1.2l1.6.9c-.6 1.5-2.3 2.6-4.1 2.5zm10 0c-1.6 0-3-.6-4-1.9l1.5-1.2c.6.9 1.4 1.4 2.5 1.4.5 0 .9-.1 1.1-.3.4-.3.5-.9.2-1.3s-.9-.5-1.1-.6c-.6-.1-1.3-.3-1.9-.5-1.1-.3-1.9-1.1-1.9-2.3 0-1.7 1.6-2.7 3.2-2.7 1.4 0 2.6.5 3.5 1.6l-1.4 1.1c-.2-.4-.5-.6-.9-.8-.5-.4-1.9-.5-2.4 0-.2.2-.3.5-.3.8 0 .9 1.4.9 2 1.1 1 .2 2.2.5 2.7 1.5.4.6.4 1.6 0 2.3-.2 1.3-1.5 1.9-2.8 1.8zm-73-9.2h1.8v7.4h4.2v1.7h-6zm12.4 9.2c-1.9 0-3.6-1.2-4.3-2.9-1.3-3.1.9-6.5 4.3-6.5 3.3 0 5.6 3.5 4.3 6.5-.7 1.8-2.4 3-4.3 2.9zm0-1.7c2.1 0 3.5-2.2 2.7-4.1-1-2.4-4.4-2.4-5.3 0-.8 1.9.5 4.1 2.6 4.1zm11.7 1.7c-3.5 0-5.7-3.4-4.4-6.5 1.3-3.4 6.2-3.8 8.2-.9l-1.5 1c-1-1.5-3.3-1.7-4.5-.4-1.4 1.4-1 4.1.9 4.9.4.2.8.2 1.2.2 1.3 0 2.3-.7 2.6-2h-2.9v-1.6h4.8v.8c0 .6-.1 1.2-.3 1.7-.6 1.7-2.3 2.9-4.1 2.8zm7.1-9.2h1.8v9.1h-1.8zm8.1 9.2c-1.6 0-3-.6-4-1.9l1.5-1.2c.6.9 1.4 1.4 2.5 1.4.5 0 .9-.1 1.1-.3.4-.3.5-.9.2-1.3-.1-.1-.2-.2-.4-.4-.2-.1-.4-.2-.7-.2-.6-.1-1.3-.3-1.9-.5-1.1-.3-1.9-1.1-1.9-2.3 0-1.7 1.6-2.7 3.2-2.7 1.4 0 2.6.5 3.5 1.6l-1.4 1.1c-.2-.4-.5-.6-.9-.8-.5-.4-1.9-.5-2.4 0-.2.2-.3.5-.3.8 0 .9 1.4.9 2 1.1 1 .2 2.2.5 2.7 1.5.4.6.4 1.6 0 2.3-.3 1.3-1.5 1.9-2.8 1.8zm8-7.6h-2.5v-1.6h6.8v1.6h-2.6v7.5h-1.7zm6.6-1.6h1.8v9.1h-1.8zm9.1 9.2c-1.9 0-3.6-1.1-4.3-2.9-.7-1.7-.3-3.9 1-5.2 2.1-2.1 5.9-1.7 7.4.9l-1.6 1c-.2-.5-.6-.9-1-1.1-1.1-.7-2.7-.5-3.6.5-1.1 1.1-1.1 3.1 0 4.2.9 1 2.6 1.2 3.6.4.4-.3.8-.7 1-1.2l1.6.9c-.6 1.5-2.3 2.6-4.1 2.5zm10 0c-1.6 0-3-.6-4-1.9l1.5-1.2c.6.9 1.4 1.4 2.5 1.4.5 0 .9-.1 1.1-.3.4-.3.5-.9.2-1.3-.1-.1-.2-.2-.4-.4-.2-.1-.4-.2-.7-.2-.6-.1-1.3-.3-1.9-.5-1.1-.3-1.9-1.1-1.9-2.3 0-1.7 1.6-2.7 3.2-2.7 1.4 0 2.6.5 3.6 1.6l-1.4 1.1c-.2-.4-.5-.6-.9-.8-.5-.4-1.9-.5-2.4 0-.2.2-.3.5-.3.8 0 .9 1.4.9 2 1.1 1 .2 2.2.5 2.7 1.5.4.6.4 1.6 0 2.3-.3 1.3-1.6 1.9-2.9 1.8zm-102.8-37.5c-6.2 0-9.5 0-9.5 0v18.4h9.5s9.6-4.4 9.6-9.2-3.4-9.2-9.6-9.2zm0 14.3c-3.3 0-5.1 0-5.1 0v-10.3h5.1c3.3 0 5.1 2.5 5.1 5.1 0 2.8-1.8 5.2-5.1 5.2zm135.9-14.3c-6.2 0-9.5 0-9.5 0v18.4h9.5c6.1 0 9.6-4.4 9.6-9.2s-3.4-9.2-9.6-9.2zm0 14.3c-3.3 0-5.1 0-5.1 0v-10.3h5.1s5.1 2.5 5.1 5.1c0 2.8-1.8 5.2-5.1 5.2zm-124.4-14.3h10.8s7.1 2.8 7.1 6.9c0 4-3.1 7-7.1 7s-6.4 0-6.4 0v4.6h-4.4zm4.4 4v5.7h6.2c3.8 0 3.8-5.8 0-5.7zm44.8-4-3.8 11.3-4.1-11.3s-5.5 0-5.6 0l-4.1 11.3-3.8-11.3h-4.5l5.8 18.4h4.4l5-13.8 5 13.8h4.4l5.8-18.4zm26.4 0h11.4c2 0 3.8.6 5.1 1.9 2.8 2.7 2.2 8-1.2 9.9l3.4 6.7h-4.8l-2.6-5.5h-6.9v5.5h-4.4zm4.4 4v4.9h6.7c1.7 0 2.7-.9 2.7-2.5s-1.1-2.4-2.7-2.4zm16.4-4h4.4v14.2h12.3v4.2h-16.7zm-32.9-.2c-6 0-10.1 3.7-10.1 9.4s4.1 9.4 10.1 9.4 10.1-3.7 10.1-9.4-4.1-9.4-10.1-9.4zm0 14.5c-3.3 0-5.7-2-5.7-5.1s2.3-5.1 5.7-5.1 5.7 2 5.7 5.1-2.3 5.1-5.7 5.1z" fill="#0f0f19"/></svg>
